<?xml version="1.0" standalone="no"?>
<!DOCTYPE svg PUBLIC "-//W3C//DTD SVG 20010904//EN"
 "http://www.w3.org/TR/2001/REC-SVG-20010904/DTD/svg10.dtd">
<svg version="1.0" xmlns="http://www.w3.org/2000/svg"
 width="459.000000pt" height="459.000000pt" viewBox="0 0 459.000000 459.000000"
 preserveAspectRatio="xMidYMid meet">
<metadata>
Created by potrace 1.11, written by Peter Selinger 2001-2013
</metadata>
<g transform="translate(0.000000,459.000000) scale(0.100000,-0.100000)"
fill="#000000" stroke="none">
<path d="M2099 4466 c-2 -2 -33 -6 -69 -9 -96 -9 -178 -24 -305 -57 -688 -177
-1250 -685 -1500 -1354 -44 -120 -90 -290 -105 -394 -6 -43 -14 -88 -17 -102
-9 -41 -12 -464 -3 -511 4 -24 10 -62 14 -84 71 -517 364 -1026 786 -1370 75
-61 218 -160 275 -191 267 -144 461 -215 720 -263 108 -20 198 -26 390 -26
208 1 256 5 415 35 64 12 236 57 265 69 11 5 54 21 95 37 179 66 373 174 541
301 113 85 287 253 371 358 52 66 188 260 188 269 0 2 18 35 39 74 102 180
188 431 235 687 21 114 29 455 14 595 -19 171 -74 393 -139 557 -86 218 -238
470 -379 628 -371 416 -825 660 -1375 740 -46 7 -450 16 -456 11z"/>
</g>
</svg>
